<?xml version="1.0" encoding="UTF-8"?>
<svg version="1.1" xmlns="http://www.w3.org/2000/svg" width="500" height="500">
<path d="M0 0 C0.72004715 -0.00807175 1.4400943 -0.01614349 2.18196106 -0.02445984 C3.71788105 -0.03833349 5.2538323 -0.04904087 6.78979492 -0.05688477 C8.33643846 -0.06827011 9.88304708 -0.0885014 11.42944336 -0.1184082 C24.83172809 -0.37756441 37.17467919 0.99224631 48.76953125 8.42578125 C49.38771729 8.80871338 50.00590332 9.19164551 50.64282227 9.58618164 C56.06383014 13.06398304 60.97742224 17.13704801 64.95703125 22.23828125 C64.95703125 22.89828125 64.95703125 23.55828125 64.95703125 24.23828125 C65.61703125 24.23828125 66.27703125 24.23828125 66.95703125 24.23828125 C68.47123279 26.48232794 69.85385652 28.71172208 71.20703125 31.05078125 C71.61034668 31.73567627 72.01366211 32.42057129 72.42919922 33.1262207 C75.21505022 37.88329761 77.88632363 42.69666427 80.4921875 47.5546875 C82.62454004 51.46115736 84.88521245 55.28935062 87.1484375 59.12109375 C88.55847622 61.55135488 89.93648223 63.99127955 91.296875 66.44921875 C94.13374129 71.57432979 97.04280168 76.6568708 99.95703125 81.73828125 C104.46950362 89.60647546 108.90504936 97.5123737 113.28125 105.45703125 C117.75728116 113.57465901 122.31006439 121.63455355 127.05200195 129.60009766 C129.46224668 133.65910999 131.81231072 137.74507958 134.11328125 141.8671875 C134.64840332 142.82133545 135.18352539 143.7754834 135.73486328 144.75854492 C136.77953802 146.62576927 137.8172734 148.49689736 138.84716797 150.37231445 C139.56283936 151.64788208 139.56283936 151.64788208 140.29296875 152.94921875 C140.7111084 153.70509277 141.12924805 154.4609668 141.56005859 155.23974609 C143.17440237 157.54925643 144.51375985 158.82563706 146.95703125 160.23828125 C149.65667281 160.73861083 149.65667281 160.73861083 152.59765625 160.75 C153.66757812 160.78544922 154.7375 160.82089844 155.83984375 160.85742188 C157.50660156 160.89125977 157.50660156 160.89125977 159.20703125 160.92578125 C160.33367187 160.95994141 161.4603125 160.99410156 162.62109375 161.02929688 C165.39939079 161.11170399 168.17819524 161.17667097 170.95703125 161.23828125 C170.95703125 168.49828125 170.95703125 175.75828125 170.95703125 183.23828125 C166.83162544 183.31982295 162.70785971 183.37904857 158.58203125 183.42578125 C157.42574219 183.45091797 156.26945313 183.47605469 155.078125 183.50195312 C145.39900435 183.58397957 136.63813656 182.63920234 128.95703125 176.23828125 C127.20737096 174.04273979 125.69812016 171.96750153 124.20703125 169.61328125 C123.79018066 168.97100586 123.37333008 168.32873047 122.94384766 167.66699219 C119.56401237 162.376925 116.41149853 156.9576011 113.33203125 151.48828125 C112.89407227 150.71403809 112.45611328 149.93979492 112.00488281 149.14208984 C111.60495117 148.41586426 111.20501953 147.68963867 110.79296875 146.94140625 C110.4376709 146.29848633 110.08237305 145.65556641 109.71630859 144.99316406 C108.95703125 143.23828125 108.95703125 143.23828125 108.95703125 140.23828125 C108.29703125 140.23828125 107.63703125 140.23828125 106.95703125 140.23828125 C106.95703125 139.24828125 106.95703125 138.25828125 106.95703125 137.23828125 C106.29703125 137.23828125 105.63703125 137.23828125 104.95703125 137.23828125 C104.61969971 136.57820068 104.28236816 135.91812012 103.93481445 135.23803711 C102.38544407 132.21431291 100.82756808 129.1950484 99.26953125 126.17578125 C98.73908203 125.13744141 98.20863281 124.09910156 97.66210938 123.02929688 C95.37737921 118.61402079 93.14455907 114.31078038 90.1875 110.3046875 C88.23059503 107.61437156 87.00131428 105.37113035 85.95703125 102.23828125 C84.99683761 103.82048712 84.03895327 105.40409456 83.08203125 106.98828125 C82.54835938 107.87 82.0146875 108.75171875 81.46484375 109.66015625 C80.20106459 111.82102218 79.0420429 113.9839852 77.95703125 116.23828125 C77.29703125 116.23828125 76.63703125 116.23828125 75.95703125 116.23828125 C75.84101563 117.23214844 75.84101563 117.23214844 75.72265625 118.24609375 C74.69043026 122.28020145 72.77312949 125.51930535 70.70703125 129.11328125 C70.26955566 129.88704102 69.83208008 130.66080078 69.38134766 131.45800781 C68.42476494 133.14844851 67.46515589 134.83717935 66.50292969 136.52441406 C64.32579095 140.34644094 62.16954711 144.18015505 60.01098633 148.01269531 C58.34893172 150.95832882 56.67891626 153.8993367 55.0078125 156.83984375 C53.16303577 160.09024592 51.34211484 163.35021524 49.5625 166.63671875 C49.21074707 167.27770508 48.85899414 167.91869141 48.49658203 168.57910156 C47.60148493 170.21362671 46.71811 171.85455698 45.8359375 173.49609375 C41.66659791 179.58107586 35.9318373 183.09464478 28.95703125 185.23828125 C24.49772713 185.75520945 20.09348842 185.70602947 15.609375 185.62890625 C14.35693497 185.62324646 13.10449493 185.61758667 11.81410217 185.61175537 C8.51438084 185.59326283 5.21546865 185.55744538 1.91601562 185.51293945 C-1.46279087 185.47172454 -4.84171671 185.45368896 -8.22070312 185.43359375 C-14.82843671 185.3896523 -21.43563668 185.32283393 -28.04296875 185.23828125 C-26.614654 180.81492696 -24.94153935 176.89623321 -22.73046875 172.80078125 C-22.38781982 172.16519287 -22.0451709 171.52960449 -21.69213867 170.87475586 C-17.9513606 163.98299492 -14.05849903 157.17610741 -10.18334961 150.359375 C-6.13398761 143.21843946 -2.18774924 136.02706884 1.70703125 128.80078125 C7.87073309 117.36699978 14.15051264 106.01439784 20.70703125 94.80078125 C21.25746094 93.85203125 21.80789062 92.90328125 22.375 91.92578125 C23.41426498 90.16031383 24.47883728 88.40945617 25.5703125 86.67578125 C26.28767578 85.50015625 26.28767578 85.50015625 27.01953125 84.30078125 C27.44363281 83.63175781 27.86773437 82.96273437 28.3046875 82.2734375 C29.25690476 79.30274772 28.35093174 77.98532491 26.95703125 75.23828125 C25.84768952 73.15592653 24.69968241 71.09383864 23.51953125 69.05078125 C22.62427734 67.48263672 22.62427734 67.48263672 21.7109375 65.8828125 C20.06494916 63.03085628 20.06494916 63.03085628 16.95703125 61.23828125 C14.3600883 60.88698584 14.3600883 60.88698584 11.44921875 60.859375 C9.84626953 60.80813477 9.84626953 60.80813477 8.2109375 60.75585938 C7.09589844 60.72943359 5.98085937 60.70300781 4.83203125 60.67578125 C2.62097798 60.61612597 0.41002592 60.55254378 -1.80078125 60.484375 C-2.78191895 60.46044678 -3.76305664 60.43651855 -4.77392578 60.41186523 C-7.04296875 60.23828125 -7.04296875 60.23828125 -8.04296875 59.23828125 C-8.12966307 57.74956265 -8.15000369 56.25683625 -8.140625 54.765625 C-8.13740234 53.86650391 -8.13417969 52.96738281 -8.13085938 52.04101562 C-8.12248047 51.09548828 -8.11410156 50.14996094 -8.10546875 49.17578125 C-8.10095703 48.22638672 -8.09644531 47.27699219 -8.09179688 46.29882812 C-8.07996985 43.9452506 -8.063489 41.59179648 -8.04296875 39.23828125 C-3.66891697 39.08840599 0.70372153 38.98036429 5.07958984 38.90869141 C6.56357906 38.87877357 8.04739539 38.83802189 9.53076172 38.78564453 C18.09438614 38.49114362 24.8888506 38.66050671 32.25634766 43.64599609 C33.95703125 45.23828125 33.95703125 45.23828125 34.95703125 48.23828125 C35.61703125 48.23828125 36.27703125 48.23828125 36.95703125 48.23828125 C38.00683594 49.64013672 38.00683594 49.64013672 39.12890625 51.60546875 C39.54342041 52.3221875 39.95793457 53.03890625 40.38500977 53.77734375 C40.82127686 54.54820312 41.25754395 55.3190625 41.70703125 56.11328125 C42.60649906 57.67333381 43.50623781 59.23323019 44.40625 60.79296875 C45.06052979 61.93523926 45.06052979 61.93523926 45.72802734 63.10058594 C47.29726273 65.83007044 48.90143441 68.53751621 50.51953125 71.23828125 C50.97457031 72.00140625 51.42960937 72.76453125 51.8984375 73.55078125 C52.84751964 75.20318261 52.84751964 75.20318261 53.95703125 76.23828125 C53.58996097 81.62420339 52.16549388 85.2078158 49.39453125 89.80078125 C48.66375853 91.0310695 47.93329853 92.26154354 47.203125 93.4921875 C46.82913574 94.11367676 46.45514648 94.73516602 46.06982422 95.37548828 C44.32015941 98.30439186 42.64217744 101.27175658 40.95703125 104.23828125 C40.29337309 105.40127249 39.62930921 106.56403231 38.96484375 107.7265625 C38.63516602 108.3035791 38.30548828 108.8805957 37.96582031 109.47509766 C36.94132687 111.2657297 35.91430844 113.05489325 34.88671875 114.84375 C34.54253906 115.44380859 34.19835937 116.04386719 33.84375 116.66210938 C32.90049894 118.30642542 31.95615165 119.95011248 31.01171875 121.59375 C28.25941741 126.43802373 25.61610797 131.34245658 22.95703125 136.23828125 C20.89527279 140.03035175 18.83256359 143.82190368 16.76953125 147.61328125 C16.24939453 148.57105469 15.72925781 149.52882813 15.19335938 150.515625 C14.68869141 151.44246094 14.18402344 152.36929688 13.6640625 153.32421875 C13.21522705 154.14970215 12.7663916 154.97518555 12.30395508 155.82568359 C10.90617098 158.32938169 9.44462772 160.78706285 7.95703125 163.23828125 C10.70867557 163.37346028 13.45367646 163.47243376 16.20703125 163.55078125 C16.98433594 163.59267578 17.76164062 163.63457031 18.5625 163.67773438 C23.27181028 163.80487291 23.27181028 163.80487291 27.13671875 161.34765625 C27.73742187 160.3215625 28.338125 159.29546875 28.95703125 158.23828125 C29.39402344 157.51664795 29.83101562 156.79501465 30.28125 156.05151367 C31.83950201 153.4481741 33.34035933 150.81779847 34.83203125 148.17578125 C35.36940918 147.23057617 35.90678711 146.28537109 36.46044922 145.31152344 C39.62795752 139.70458111 42.60243462 134.04786012 45.40625 128.25 C47.80954615 123.58264149 50.52162834 119.10408539 53.20874023 114.59594727 C56.39251564 109.24204332 59.37933791 103.8209335 62.2890625 98.3125 C64.58017238 94.08977523 67.06482715 89.99057852 69.57421875 85.89453125 C70.98160974 83.19106833 71.76406746 81.27746092 71.95703125 78.23828125 C71.10059012 75.78126198 71.10059012 75.78126198 69.58203125 73.36328125 C69.02773437 72.40679687 68.4734375 71.4503125 67.90234375 70.46484375 C67.26039063 69.40007812 66.6184375 68.3353125 65.95703125 67.23828125 C65.22508102 66.01703459 64.49331745 64.79567603 63.76171875 63.57421875 C62.60512442 61.64565576 61.44547097 59.71929687 60.27587891 57.79858398 C58.01518388 54.07332698 55.93548834 50.31125114 53.95703125 46.42578125 C47.1774908 33.859285 38.01483837 27.13250644 24.62988281 23.09863281 C18.51429258 21.66607897 12.46447031 21.60028631 6.20703125 21.55078125 C3.71217409 21.50894676 1.2173727 21.46358209 -1.27734375 21.4140625 C-2.36241211 21.40286377 -3.44748047 21.39166504 -4.56542969 21.38012695 C-7.04296875 21.23828125 -7.04296875 21.23828125 -8.04296875 20.23828125 C-8.14157006 18.8347939 -8.17375812 17.42647648 -8.17578125 16.01953125 C-8.17707031 15.17003906 -8.17835938 14.32054687 -8.1796875 13.4453125 C-8.17582031 12.55199219 -8.17195313 11.65867188 -8.16796875 10.73828125 C-8.17376953 9.39830078 -8.17376953 9.39830078 -8.1796875 8.03125 C-8.17839844 7.18175781 -8.17710937 6.33226562 -8.17578125 5.45703125 C-8.17465332 4.67263672 -8.17352539 3.88824219 -8.17236328 3.08007812 C-7.86650276 -1.27352893 -3.3967148 0.0361219 0 0 Z " fill="#0A0A0A" transform="translate(178.04296875,137.76171875)"/>
<path d="M0 0 C0.66 0 1.32 0 2 0 C3.515625 2.2734375 3.515625 2.2734375 5.25 5.375 C5.87261719 6.47457031 6.49523437 7.57414062 7.13671875 8.70703125 C8.05904297 10.33705078 8.05904297 10.33705078 9 12 C10.01471254 13.69118757 11.03505903 15.37901493 12.0625 17.0625 C14.13388906 20.49650044 16.09456986 23.97124236 18 27.5 C25.84195429 41.94141711 32.75955215 52.74862616 48.68383789 59.06445312 C52.49752604 60.14036073 56.09261179 60.35035661 60.0234375 60.4140625 C61.14270126 60.44311172 61.14270126 60.44311172 62.28457642 60.4727478 C64.64793777 60.53212065 67.01134897 60.5787578 69.375 60.625 C70.98569732 60.66321884 72.59637506 60.7022728 74.20703125 60.7421875 C78.13791397 60.83934629 82.06860967 60.91924712 86 61 C86 68.26 86 75.52 86 83 C81.05561177 83.06931385 76.11294613 83.12890982 71.16845703 83.16479492 C69.49066417 83.17977234 67.81290972 83.20016154 66.13525391 83.22631836 C48.16905006 83.49918209 48.16905006 83.49918209 40 80 C39.36642578 79.73920654 38.73285156 79.47841309 38.08007812 79.2097168 C21.43158128 71.93389078 10.78459018 60.76941066 2 45 C1.2584514 43.68713893 0.51620999 42.37466903 -0.2265625 41.0625 C-2.1377029 37.68026394 -4.0454713 34.29634423 -5.91894531 30.89306641 C-6.64116758 29.62836193 -7.40180017 28.38485606 -8.19824219 27.16552734 C-9.99704126 24.35307025 -10.99554365 22.42056776 -11.03125 19.05078125 C-9.68443395 15.06645043 -7.73511139 11.73392287 -5.5 8.1875 C-5.08363281 7.50751953 -4.66726563 6.82753906 -4.23828125 6.12695312 C-1.20659497 1.20659497 -1.20659497 1.20659497 0 0 Z " fill="#0D0D0D" transform="translate(263,276)"/>
</svg>
